<mxfile host="app.diagrams.net" agent="Mozilla/5.0 (Windows NT 10.0; Win64; x64) AppleWebKit/537.36 (KHTML, like Gecko) Chrome/127.0.0.0 Safari/537.36" version="24.7.7">
  <diagram name="Page-1" id="zQReho6F0GisD9alQKol">
    <mxGraphModel dx="1832" dy="1606" grid="1" gridSize="10" guides="1" tooltips="1" connect="1" arrows="1" fold="1" page="0" pageScale="1" pageWidth="850" pageHeight="1100" math="0" shadow="0">
      <root>
        <mxCell id="0" />
        <mxCell id="1" parent="0" />
        <mxCell id="hKjXuKJLp3FPNeDqWuhd-15" value="WORKER / SLAVE" style="swimlane;fontStyle=0;childLayout=stackLayout;horizontal=1;startSize=26;horizontalStack=0;resizeParent=1;resizeParentMax=0;resizeLast=0;collapsible=1;marginBottom=0;html=1;labelBackgroundColor=none;rounded=0;" vertex="1" parent="1">
          <mxGeometry x="240" y="-610" width="140" height="78" as="geometry" />
        </mxCell>
        <mxCell id="hKjXuKJLp3FPNeDqWuhd-16" value="KUBELET" style="text;strokeColor=none;fillColor=none;align=left;verticalAlign=top;spacingLeft=4;spacingRight=4;overflow=hidden;rotatable=0;points=[[0,0.5],[1,0.5]];portConstraint=eastwest;whiteSpace=wrap;html=1;labelBackgroundColor=none;rounded=1;" vertex="1" parent="hKjXuKJLp3FPNeDqWuhd-15">
          <mxGeometry y="26" width="140" height="26" as="geometry" />
        </mxCell>
        <mxCell id="hKjXuKJLp3FPNeDqWuhd-17" value="KUBEPROXY" style="text;strokeColor=none;fillColor=none;align=left;verticalAlign=top;spacingLeft=4;spacingRight=4;overflow=hidden;rotatable=0;points=[[0,0.5],[1,0.5]];portConstraint=eastwest;whiteSpace=wrap;html=1;labelBackgroundColor=none;rounded=1;" vertex="1" parent="hKjXuKJLp3FPNeDqWuhd-15">
          <mxGeometry y="52" width="140" height="26" as="geometry" />
        </mxCell>
        <mxCell id="hKjXuKJLp3FPNeDqWuhd-19" value="WORKER / SLAVE" style="swimlane;fontStyle=0;childLayout=stackLayout;horizontal=1;startSize=26;horizontalStack=0;resizeParent=1;resizeParentMax=0;resizeLast=0;collapsible=1;marginBottom=0;html=1;labelBackgroundColor=none;rounded=0;" vertex="1" parent="1">
          <mxGeometry x="240" y="-450" width="140" height="78" as="geometry">
            <mxRectangle x="240" y="-450" width="110" height="30" as="alternateBounds" />
          </mxGeometry>
        </mxCell>
        <mxCell id="hKjXuKJLp3FPNeDqWuhd-20" value="KUBELET" style="text;strokeColor=none;fillColor=none;align=left;verticalAlign=top;spacingLeft=4;spacingRight=4;overflow=hidden;rotatable=0;points=[[0,0.5],[1,0.5]];portConstraint=eastwest;whiteSpace=wrap;html=1;labelBackgroundColor=none;rounded=1;" vertex="1" parent="hKjXuKJLp3FPNeDqWuhd-19">
          <mxGeometry y="26" width="140" height="26" as="geometry" />
        </mxCell>
        <mxCell id="hKjXuKJLp3FPNeDqWuhd-21" value="KUBEPROXY" style="text;strokeColor=none;fillColor=none;align=left;verticalAlign=top;spacingLeft=4;spacingRight=4;overflow=hidden;rotatable=0;points=[[0,0.5],[1,0.5]];portConstraint=eastwest;whiteSpace=wrap;html=1;labelBackgroundColor=none;rounded=1;" vertex="1" parent="hKjXuKJLp3FPNeDqWuhd-19">
          <mxGeometry y="52" width="140" height="26" as="geometry" />
        </mxCell>
        <mxCell id="hKjXuKJLp3FPNeDqWuhd-22" value="WORKER / SLAVE" style="swimlane;fontStyle=0;childLayout=stackLayout;horizontal=1;startSize=26;horizontalStack=0;resizeParent=1;resizeParentMax=0;resizeLast=0;collapsible=1;marginBottom=0;html=1;labelBackgroundColor=none;rounded=0;swimlaneLine=1;" vertex="1" parent="1">
          <mxGeometry x="240" y="-330" width="140" height="78" as="geometry" />
        </mxCell>
        <mxCell id="hKjXuKJLp3FPNeDqWuhd-23" value="KUBELET" style="text;strokeColor=none;fillColor=none;align=left;verticalAlign=top;spacingLeft=4;spacingRight=4;overflow=hidden;rotatable=0;points=[[0,0.5],[1,0.5]];portConstraint=eastwest;whiteSpace=wrap;html=1;labelBackgroundColor=none;rounded=1;" vertex="1" parent="hKjXuKJLp3FPNeDqWuhd-22">
          <mxGeometry y="26" width="140" height="26" as="geometry" />
        </mxCell>
        <mxCell id="hKjXuKJLp3FPNeDqWuhd-24" value="KUBEPROXY" style="text;strokeColor=none;fillColor=none;align=left;verticalAlign=top;spacingLeft=4;spacingRight=4;overflow=hidden;rotatable=0;points=[[0,0.5],[1,0.5]];portConstraint=eastwest;whiteSpace=wrap;html=1;labelBackgroundColor=none;rounded=1;" vertex="1" parent="hKjXuKJLp3FPNeDqWuhd-22">
          <mxGeometry y="52" width="140" height="26" as="geometry" />
        </mxCell>
        <mxCell id="hKjXuKJLp3FPNeDqWuhd-25" value="MASTER NODE / CONTROL PLANE" style="swimlane;childLayout=stackLayout;horizontal=1;startSize=50;horizontalStack=0;rounded=0;fontSize=14;fontStyle=0;strokeWidth=2;resizeParent=0;resizeLast=1;shadow=0;dashed=0;align=center;arcSize=4;whiteSpace=wrap;html=1;labelBackgroundColor=none;" vertex="1" parent="1">
          <mxGeometry x="-60" y="-551" width="190" height="331" as="geometry" />
        </mxCell>
        <mxCell id="hKjXuKJLp3FPNeDqWuhd-35" value="" style="edgeStyle=orthogonalEdgeStyle;sourcePerimeterSpacing=0;targetPerimeterSpacing=0;startArrow=none;endArrow=none;rounded=1;targetPortConstraint=eastwest;sourcePortConstraint=northsouth;curved=0;rounded=0;fontSize=12;startSize=8;endSize=8;labelBackgroundColor=none;fontColor=default;" edge="1" target="hKjXuKJLp3FPNeDqWuhd-37" parent="1">
          <mxGeometry relative="1" as="geometry">
            <mxPoint x="35" y="-481" as="sourcePoint" />
          </mxGeometry>
        </mxCell>
        <mxCell id="hKjXuKJLp3FPNeDqWuhd-36" value="" style="edgeStyle=orthogonalEdgeStyle;sourcePerimeterSpacing=0;targetPerimeterSpacing=0;startArrow=none;endArrow=none;rounded=1;targetPortConstraint=eastwest;sourcePortConstraint=northsouth;curved=0;rounded=0;fontSize=12;startSize=8;endSize=8;labelBackgroundColor=none;fontColor=default;" edge="1" target="hKjXuKJLp3FPNeDqWuhd-38" parent="1">
          <mxGeometry relative="1" as="geometry">
            <mxPoint x="35" y="-490" as="sourcePoint" />
          </mxGeometry>
        </mxCell>
        <mxCell id="hKjXuKJLp3FPNeDqWuhd-37" value="&lt;font style=&quot;font-size: 10px;&quot;&gt;API SERVERS&lt;/font&gt;&lt;div&gt;&lt;font style=&quot;font-size: 10px;&quot;&gt;&lt;br&gt;&lt;/font&gt;&lt;/div&gt;&lt;div&gt;&lt;font style=&quot;font-size: 10px;&quot;&gt;&lt;br&gt;&lt;/font&gt;&lt;/div&gt;&lt;div&gt;&lt;font style=&quot;font-size: 10px;&quot;&gt;&lt;br&gt;&lt;/font&gt;&lt;/div&gt;" style="whiteSpace=wrap;html=1;align=center;verticalAlign=middle;treeFolding=1;treeMoving=1;labelBackgroundColor=none;rounded=1;" vertex="1" parent="1">
          <mxGeometry x="-40" y="-470" width="65" height="89" as="geometry" />
        </mxCell>
        <mxCell id="hKjXuKJLp3FPNeDqWuhd-38" value="&lt;font style=&quot;font-size: 10px;&quot;&gt;ETCD&lt;/font&gt;&lt;div&gt;&lt;font style=&quot;font-size: 10px;&quot;&gt;&lt;br&gt;&lt;/font&gt;&lt;/div&gt;&lt;div&gt;&lt;font style=&quot;font-size: 10px;&quot;&gt;&lt;br&gt;&lt;/font&gt;&lt;/div&gt;" style="whiteSpace=wrap;html=1;align=center;verticalAlign=middle;treeFolding=1;treeMoving=1;labelBackgroundColor=none;rounded=1;" vertex="1" parent="1">
          <mxGeometry x="45" y="-470" width="65" height="89" as="geometry" />
        </mxCell>
        <mxCell id="hKjXuKJLp3FPNeDqWuhd-43" value="" style="edgeStyle=orthogonalEdgeStyle;sourcePerimeterSpacing=0;targetPerimeterSpacing=0;startArrow=none;endArrow=none;rounded=1;targetPortConstraint=eastwest;sourcePortConstraint=northsouth;curved=0;rounded=0;fontSize=12;startSize=8;endSize=8;labelBackgroundColor=none;fontColor=default;" edge="1" target="hKjXuKJLp3FPNeDqWuhd-45" parent="1">
          <mxGeometry relative="1" as="geometry">
            <mxPoint x="35" y="-412" as="sourcePoint" />
          </mxGeometry>
        </mxCell>
        <mxCell id="hKjXuKJLp3FPNeDqWuhd-44" value="" style="edgeStyle=orthogonalEdgeStyle;sourcePerimeterSpacing=0;targetPerimeterSpacing=0;startArrow=none;endArrow=none;rounded=1;targetPortConstraint=eastwest;sourcePortConstraint=northsouth;curved=0;rounded=0;fontSize=12;startSize=8;endSize=8;labelBackgroundColor=none;fontColor=default;" edge="1" target="hKjXuKJLp3FPNeDqWuhd-46" parent="1">
          <mxGeometry relative="1" as="geometry">
            <mxPoint x="35" y="-420" as="sourcePoint" />
          </mxGeometry>
        </mxCell>
        <mxCell id="hKjXuKJLp3FPNeDqWuhd-45" value="&lt;p style=&quot;line-height: 120%;&quot;&gt;&lt;font style=&quot;font-size: 10px;&quot;&gt;SCHEDULER&lt;/font&gt;&lt;/p&gt;&lt;p style=&quot;line-height: 120%;&quot;&gt;&lt;br&gt;&lt;/p&gt;" style="whiteSpace=wrap;html=1;align=center;verticalAlign=middle;treeFolding=1;treeMoving=1;labelBackgroundColor=none;rounded=1;" vertex="1" parent="1">
          <mxGeometry x="-40" y="-372" width="65" height="92" as="geometry" />
        </mxCell>
        <mxCell id="hKjXuKJLp3FPNeDqWuhd-46" value="&lt;font style=&quot;font-size: 10px;&quot;&gt;CONTROL MANAGER&lt;/font&gt;&lt;div&gt;&lt;span style=&quot;font-size: 10px;&quot;&gt;&lt;br&gt;&lt;/span&gt;&lt;div&gt;&lt;font style=&quot;font-size: 10px;&quot;&gt;&lt;br&gt;&lt;/font&gt;&lt;/div&gt;&lt;div&gt;&lt;font style=&quot;font-size: 10px;&quot;&gt;&lt;br&gt;&lt;/font&gt;&lt;/div&gt;&lt;/div&gt;" style="whiteSpace=wrap;html=1;align=center;verticalAlign=middle;treeFolding=1;treeMoving=1;labelBackgroundColor=none;rounded=1;" vertex="1" parent="1">
          <mxGeometry x="45" y="-372" width="65" height="92" as="geometry" />
        </mxCell>
        <mxCell id="hKjXuKJLp3FPNeDqWuhd-55" value="" style="aspect=fixed;sketch=0;html=1;dashed=0;whitespace=wrap;verticalLabelPosition=bottom;verticalAlign=top;fillColor=#2875E2;strokeColor=#ffffff;points=[[0.005,0.63,0],[0.1,0.2,0],[0.9,0.2,0],[0.5,0,0],[0.995,0.63,0],[0.72,0.99,0],[0.5,1,0],[0.28,0.99,0]];shape=mxgraph.kubernetes.icon2;prIcon=api;rounded=1;" vertex="1" parent="1">
          <mxGeometry x="-28.330000000000002" y="-430.5" width="40.63" height="39" as="geometry" />
        </mxCell>
        <mxCell id="hKjXuKJLp3FPNeDqWuhd-56" value="" style="aspect=fixed;sketch=0;html=1;dashed=0;whitespace=wrap;verticalLabelPosition=bottom;verticalAlign=top;fillColor=#2875E2;strokeColor=#ffffff;points=[[0.005,0.63,0],[0.1,0.2,0],[0.9,0.2,0],[0.5,0,0],[0.995,0.63,0],[0.72,0.99,0],[0.5,1,0],[0.28,0.99,0]];shape=mxgraph.kubernetes.icon2;prIcon=etcd;rounded=1;" vertex="1" parent="1">
          <mxGeometry x="57.18" y="-430.5" width="40.64" height="39" as="geometry" />
        </mxCell>
        <mxCell id="hKjXuKJLp3FPNeDqWuhd-57" value="" style="aspect=fixed;sketch=0;html=1;dashed=0;whitespace=wrap;verticalLabelPosition=bottom;verticalAlign=top;fillColor=#2875E2;strokeColor=#ffffff;points=[[0.005,0.63,0],[0.1,0.2,0],[0.9,0.2,0],[0.5,0,0],[0.995,0.63,0],[0.72,0.99,0],[0.5,1,0],[0.28,0.99,0]];shape=mxgraph.kubernetes.icon2;kubernetesLabel=1;prIcon=sched;rounded=1;" vertex="1" parent="1">
          <mxGeometry x="-28.33" y="-331" width="41.67" height="40" as="geometry" />
        </mxCell>
        <mxCell id="hKjXuKJLp3FPNeDqWuhd-58" value="" style="aspect=fixed;sketch=0;html=1;dashed=0;whitespace=wrap;verticalLabelPosition=bottom;verticalAlign=top;fillColor=#2875E2;strokeColor=#ffffff;points=[[0.005,0.63,0],[0.1,0.2,0],[0.9,0.2,0],[0.5,0,0],[0.995,0.63,0],[0.72,0.99,0],[0.5,1,0],[0.28,0.99,0]];shape=mxgraph.kubernetes.icon2;kubernetesLabel=1;prIcon=c_m;rounded=1;" vertex="1" parent="1">
          <mxGeometry x="57.18" y="-330" width="40.62" height="39" as="geometry" />
        </mxCell>
      </root>
    </mxGraphModel>
  </diagram>
</mxfile>
